<svg width="24" height="25" viewBox="0 0 24 25" fill="none" xmlns="http://www.w3.org/2000/svg">
<path d="M1 1.5H3.44444L3.93333 3.94444M5.88889 13.7222H18.1111L23 3.94444H3.93333M5.88889 13.7222L3.93333 3.94444M5.88889 13.7222L3.08646 16.5246C2.31651 17.2946 2.86182 18.6111 3.95071 18.6111H18.1111M18.1111 18.6111C16.7611 18.6111 15.6667 19.7055 15.6667 21.0556C15.6667 22.4056 16.7611 23.5 18.1111 23.5C19.4611 23.5 20.5556 22.4056 20.5556 21.0556C20.5556 19.7055 19.4611 18.6111 18.1111 18.6111ZM8.33333 21.0556C8.33333 22.4056 7.23892 23.5 5.88889 23.5C4.53886 23.5 3.44444 22.4056 3.44444 21.0556C3.44444 19.7055 4.53886 18.6111 5.88889 18.6111C7.23892 18.6111 8.33333 19.7055 8.33333 21.0556Z" stroke="#4A3518" stroke-width="2" stroke-linecap="round" stroke-linejoin="round"/>
</svg>
