<svg width="18" height="18" viewBox="0 0 18 18" fill="none" xmlns="http://www.w3.org/2000/svg">
<path d="M9 0C4.03754 0 0 4.03754 0 9C0 13.9625 4.03754 18 9 18C13.9625 18 18 13.9625 18 9C18 4.03754 13.9625 0 9 0ZM9 1.38462C13.2134 1.38462 16.6154 4.78662 16.6154 9C16.6154 13.2134 13.2134 16.6154 9 16.6154C4.78662 16.6154 1.38462 13.2134 1.38462 9C1.38462 4.78662 4.78662 1.38462 9 1.38462ZM8.93492 4.84615C6.63369 4.84615 4.78108 6.69877 4.78108 9C4.78108 11.3012 6.63369 13.1538 8.93492 13.1538C10.5958 13.1538 12.0157 12.1583 12.6775 10.7522L11.4231 10.1686C10.9765 11.1171 10.044 11.7692 8.93492 11.7692C7.35854 11.7692 6.16569 10.5764 6.16569 9C6.16569 7.42362 7.35854 6.23077 8.93492 6.23077C10.044 6.23077 10.9772 6.88223 11.4231 7.83208L12.6782 7.24777C12.015 5.84169 10.5958 4.84615 8.93423 4.84615H8.93492Z" fill="#A0856A"/>
</svg>
