<svg width="64" height="65" viewBox="0 0 64 65" fill="none" xmlns="http://www.w3.org/2000/svg">
<g clip-path="url(#clip0_1584_2789)">
<path d="M64 32.5C64 14.827 49.673 0.5 32 0.5C14.327 0.5 0 14.8267 0 32.5C0 48.472 11.702 61.7108 27 64.1113V41.75H18.875V32.5H27V25.45C27 17.43 31.7775 13 39.0868 13C42.588 13 46.25 13.625 46.25 13.625V21.5H42.215C38.2395 21.5 37 23.9667 37 26.4975V32.5H45.875L44.4562 41.75H37V64.1113C52.298 61.7108 64 48.4722 64 32.5Z" fill="#1877F2"/>
<path d="M44.4562 41.75L45.875 32.5H37V26.4975C37 23.9665 38.2398 21.5 42.215 21.5H46.25V13.625C46.25 13.625 42.588 13 39.0868 13C31.7775 13 27 17.43 27 25.45V32.5H18.875V41.75H27V64.1113C28.654 64.3705 30.3258 64.5004 32 64.5C33.6742 64.5005 35.346 64.3705 37 64.1113V41.75H44.4562Z" fill="white"/>
</g>
<defs>
<clipPath id="clip0_1584_2789">
<rect width="64" height="64" fill="white" transform="translate(0 0.5)"/>
</clipPath>
</defs>
</svg>
