<svg width="64" height="65" viewBox="0 0 64 65" fill="none" xmlns="http://www.w3.org/2000/svg">
<g clip-path="url(#clip0_1584_2780)">
<path d="M49 0.5H15C6.71573 0.5 0 7.21573 0 15.5V49.5C0 57.7843 6.71573 64.5 15 64.5H49C57.2843 64.5 64 57.7843 64 49.5V15.5C64 7.21573 57.2843 0.5 49 0.5Z" fill="url(#paint0_radial_1584_2780)"/>
<path d="M49 0.5H15C6.71573 0.5 0 7.21573 0 15.5V49.5C0 57.7843 6.71573 64.5 15 64.5H49C57.2843 64.5 64 57.7843 64 49.5V15.5C64 7.21573 57.2843 0.5 49 0.5Z" fill="url(#paint1_radial_1584_2780)"/>
<path d="M32.0023 7.5C25.2128 7.5 24.3605 7.52975 21.694 7.651C19.0325 7.773 17.2158 8.19425 15.6263 8.8125C13.9818 9.451 12.587 10.3052 11.1975 11.6952C9.80675 13.085 8.9525 14.4797 8.312 16.1235C7.692 17.7135 7.27025 19.531 7.1505 22.1912C7.03125 24.858 7 25.7105 7 32.5003C7 39.29 7.03 40.1395 7.151 42.806C7.2735 45.4675 7.69475 47.2842 8.3125 48.8737C8.9515 50.5182 9.80575 51.913 11.1958 53.3025C12.585 54.6933 13.9798 55.5495 15.623 56.188C17.2138 56.8062 19.0307 57.2275 21.6917 57.3495C24.3585 57.4707 25.21 57.5005 31.9993 57.5005C38.7895 57.5005 39.639 57.4707 42.3055 57.3495C44.967 57.2275 46.7857 56.8062 48.3765 56.188C50.0202 55.5495 51.413 54.6933 52.802 53.3025C54.1927 51.913 55.0468 50.5183 55.6875 48.8745C56.302 47.2843 56.724 45.467 56.849 42.8065C56.9687 40.14 57 39.29 57 32.5003C57 25.7105 56.9687 24.8585 56.849 22.1917C56.724 19.5302 56.302 17.7138 55.6875 16.1243C55.0468 14.4798 54.1927 13.085 52.802 11.6952C51.4115 10.3047 50.0208 9.4505 48.375 8.81275C46.7812 8.19425 44.9635 7.77275 42.302 7.651C39.6352 7.52975 38.7862 7.5 31.9945 7.5H32.0023ZM29.7595 12.0052C30.4253 12.0042 31.168 12.0052 32.0023 12.0052C38.6775 12.0052 39.4685 12.0293 42.1045 12.149C44.542 12.2605 45.865 12.6678 46.7463 13.01C47.913 13.463 48.7448 14.0048 49.6193 14.88C50.4943 15.755 51.0358 16.5882 51.49 17.755C51.8323 18.635 52.24 19.958 52.351 22.3955C52.4708 25.031 52.4967 25.8225 52.4967 32.4945C52.4967 39.1665 52.4708 39.9582 52.351 42.5935C52.2395 45.031 51.8323 46.354 51.49 47.2342C51.037 48.401 50.4943 49.2318 49.6193 50.1063C48.7443 50.9813 47.9135 51.5228 46.7463 51.976C45.866 52.3198 44.542 52.726 42.1045 52.8375C39.469 52.9573 38.6775 52.9832 32.0023 52.9832C25.3268 52.9832 24.5355 52.9573 21.9002 52.8375C19.4627 52.725 18.1397 52.3177 17.2577 51.9755C16.0912 51.5222 15.2577 50.9808 14.3827 50.1058C13.5077 49.2308 12.9663 48.3995 12.512 47.2323C12.1698 46.352 11.762 45.029 11.651 42.5915C11.5313 39.956 11.5072 39.1645 11.5072 32.4883C11.5072 25.8123 11.5313 25.0247 11.651 22.3892C11.7625 19.9517 12.1698 18.6287 12.512 17.7475C12.9653 16.5807 13.5078 15.7475 14.383 14.8725C15.258 13.9975 16.0912 13.4557 17.258 13.0017C18.1392 12.658 19.4627 12.2517 21.9002 12.1397C24.2065 12.0355 25.1003 12.0042 29.7595 11.999V12.0052ZM45.3473 16.1562C43.691 16.1562 42.3473 17.4988 42.3473 19.1553C42.3473 20.8115 43.691 22.1553 45.3473 22.1553C47.0035 22.1553 48.3473 20.8115 48.3473 19.1553C48.3473 17.499 47.0035 16.1552 45.3473 16.1552V16.1562ZM32.0023 19.6615C24.9123 19.6615 19.1637 25.41 19.1637 32.5003C19.1637 39.5905 24.9123 45.3363 32.0023 45.3363C39.0925 45.3363 44.839 39.5905 44.839 32.5003C44.839 25.4103 39.092 19.6615 32.0018 19.6615H32.0023ZM32.0023 24.1667C36.6045 24.1667 40.3358 27.8975 40.3358 32.5003C40.3358 37.1025 36.6045 40.8338 32.0023 40.8338C27.3998 40.8338 23.669 37.1025 23.669 32.5003C23.669 27.8975 27.3998 24.1667 32.0023 24.1667Z" fill="white"/>
</g>
<defs>
<radialGradient id="paint0_radial_1584_2780" cx="0" cy="0" r="1" gradientUnits="userSpaceOnUse" gradientTransform="translate(17 69.4292) rotate(-90) scale(63.4288 58.9938)">
<stop stop-color="#FFDD55"/>
<stop offset="0.1" stop-color="#FFDD55"/>
<stop offset="0.5" stop-color="#FF543E"/>
<stop offset="1" stop-color="#C837AB"/>
</radialGradient>
<radialGradient id="paint1_radial_1584_2780" cx="0" cy="0" r="1" gradientUnits="userSpaceOnUse" gradientTransform="translate(-10.7202 5.11025) rotate(78.681) scale(28.353 116.872)">
<stop stop-color="#3771C8"/>
<stop offset="0.128" stop-color="#3771C8"/>
<stop offset="1" stop-color="#6600FF" stop-opacity="0"/>
</radialGradient>
<clipPath id="clip0_1584_2780">
<rect width="64" height="64" fill="white" transform="translate(0 0.5)"/>
</clipPath>
</defs>
</svg>
