<svg width="18" height="19" viewBox="0 0 18 19" fill="none" xmlns="http://www.w3.org/2000/svg">
<path d="M9.25876 13.0245L9.00051 12.8683L8.74199 13.024L5.62949 14.899L5.62859 14.8996C5.43904 15.0143 5.20687 14.8469 5.25694 14.6308C5.25696 14.6307 5.25698 14.6307 5.257 14.6306L6.08194 11.0908L6.15042 10.797L5.92242 10.5994L3.16992 8.21445L3.16974 8.21429C3.00051 8.06779 3.09473 7.79534 3.30964 7.77825L3.30964 7.77826L3.31228 7.77803L6.93478 7.47053L7.23494 7.44505L7.35271 7.16779L8.77021 3.83029L8.77021 3.83029L8.77103 3.82834C8.8545 3.62948 9.14549 3.62948 9.22896 3.82834L9.22962 3.82991L10.6471 7.17491L10.7648 7.45253L11.0652 7.47803L14.6877 7.78553L14.6877 7.78554L14.6903 7.78575C14.9053 7.80285 14.9995 8.0753 14.8302 8.22179L14.8301 8.22195L12.0776 10.6069L11.8496 10.8045L11.918 11.0983L12.743 14.6381C12.7933 14.8543 12.561 15.0218 12.3714 14.9071L12.3713 14.907L9.25876 13.0245Z" fill="#FDAB30" stroke="#FC7600"/>
</svg>
