<svg width="30" height="30" viewBox="0 0 30 30" fill="none" xmlns="http://www.w3.org/2000/svg">
<g clip-path="url(#clip0_1207_2653)">
<path d="M15.0626 0C19.0584 0.00197674 22.8089 1.54535 25.629 4.34686C28.4493 7.14826 30.0015 10.8724 30 14.8322C29.9967 22.9228 23.4286 29.5203 15.3094 29.6515L15.0629 29.6535H15.0567C12.5952 29.6527 10.1759 29.0495 8.01949 27.9041L7.91871 27.8499L0 29.9108L2.1191 22.23C0.812109 19.9828 0.124336 17.4328 0.125391 14.8203C0.128672 6.6486 6.82957 0 15.0626 0ZM15.0677 2.50349C8.21965 2.50349 2.65008 8.02942 2.64738 14.8216C2.64645 17.1137 3.28301 19.3473 4.48945 21.2881L4.54547 21.3776L4.84078 21.8437L3.58652 26.3894L8.28539 25.1665L8.73879 25.4333C10.6146 26.5378 12.7607 27.1308 14.9517 27.15L15.0578 27.1505H15.0629C21.9057 27.1505 27.4752 21.6242 27.478 14.8315C27.4792 11.5399 26.1892 8.44465 23.8451 6.11616C21.501 3.78779 18.3838 2.50453 15.0677 2.50337V2.50349ZM9.77437 7.97593C10.023 7.97593 10.2724 7.97826 10.4897 7.9893C10.7189 8.00047 11.0265 7.90291 11.3293 8.62488C11.4456 8.90163 11.6223 9.32919 11.8032 9.76593L11.842 9.85954C12.1332 10.5624 12.4243 11.2633 12.4804 11.3745C12.5735 11.5598 12.6356 11.7763 12.5113 12.0233C12.3871 12.2706 12.3246 12.4249 12.1382 12.6414C11.9515 12.8574 11.7463 13.1243 11.5784 13.2901C11.5692 13.2991 11.5601 13.3082 11.5509 13.3172L11.5238 13.3448C11.3573 13.5156 11.2181 13.7114 11.4148 14.0456C11.6324 14.4165 12.3813 15.6295 13.4909 16.6114C14.9164 17.873 16.1191 18.2642 16.4924 18.4497C16.8655 18.635 17.0834 18.6041 17.301 18.3566C17.5188 18.1097 18.2339 17.2755 18.4828 16.9047C18.7316 16.534 18.9804 16.5959 19.3226 16.7194C19.4851 16.7781 19.9852 17.0114 20.5052 17.26L20.667 17.3374C21.1876 17.5874 21.6954 17.836 21.8728 17.9242C22.2461 18.1097 22.495 18.2023 22.5881 18.3566C22.6814 18.5113 22.6814 19.2526 22.3704 20.1177C22.0595 20.9828 20.5683 21.7723 19.8512 21.8788C19.2082 21.974 18.3946 22.0137 17.5004 21.7321C16.9586 21.5612 16.2632 21.3334 15.3727 20.9519C11.6287 19.3479 9.1834 15.607 8.99695 15.36L8.9843 15.3433C8.75684 15.0416 7.47281 13.3148 7.47281 11.5288C7.47281 9.70616 8.43715 8.81023 8.7791 8.43942C9.12129 8.06895 9.52559 7.97593 9.77437 7.97593Z" fill="#A0856A"/>
</g>
<defs>
<clipPath id="clip0_1207_2653">
<rect width="30" height="30" fill="white"/>
</clipPath>
</defs>
</svg>
