<svg width="64" height="65" viewBox="0 0 64 65" fill="none" xmlns="http://www.w3.org/2000/svg">
<g clip-path="url(#clip0_1584_2785)">
<path d="M1.36578 32.117C1.36428 37.4942 2.78028 42.7447 5.47278 47.3726L1.10828 63.1845L17.4163 58.9417C21.9268 61.3782 26.9806 62.6548 32.1163 62.6552H32.1298C49.0835 62.6552 62.8843 48.9664 62.8915 32.1411C62.8948 23.988 59.6978 16.3214 53.8893 10.5535C48.0818 4.78601 40.358 1.60809 32.1285 1.60437C15.1728 1.60437 1.37303 15.2924 1.36603 32.117" fill="url(#paint0_linear_1584_2785)"/>
<path d="M0.2675 32.1071C0.26575 37.6778 1.7325 43.1161 4.521 47.9096L0 64.2884L16.8927 59.8935C21.5472 62.4116 26.7878 63.7392 32.1203 63.7412H32.134C49.696 63.7412 63.9925 49.56 64 32.1324C64.003 23.6864 60.691 15.7442 54.675 9.76958C48.6582 3.79575 40.6582 0.503473 32.134 0.5C14.569 0.5 0.2745 14.6792 0.2675 32.1071ZM10.3275 47.0841L9.69675 46.0906C7.04525 41.9073 5.64575 37.073 5.64775 32.1091C5.6535 17.6235 17.5345 5.83829 32.144 5.83829C39.219 5.84127 45.868 8.57789 50.869 13.5431C55.8697 18.5088 58.6215 25.1097 58.6198 32.1304C58.6133 46.616 46.732 58.4026 32.134 58.4026H32.1235C27.3703 58.4002 22.7085 57.1335 18.643 54.74L17.6755 54.1707L7.651 56.7786L10.3275 47.0838V47.0841Z" fill="url(#paint1_linear_1584_2785)"/>
<path d="M24.1695 18.8933C23.573 17.5778 22.9453 17.5513 22.378 17.5282C21.9135 17.5084 21.3825 17.5099 20.852 17.5099C20.321 17.5099 19.4583 17.7081 18.729 18.4981C17.999 19.289 15.942 21.2 15.942 25.0869C15.942 28.974 18.7953 32.7304 19.193 33.2581C19.5913 33.7847 24.7013 42.0164 32.7943 45.1832C39.5203 47.8148 40.889 47.2914 42.3488 47.1595C43.8088 47.028 47.0598 45.2489 47.723 43.4041C48.3868 41.5595 48.3868 39.9783 48.1878 39.6479C47.9888 39.3187 47.4578 39.121 46.6615 38.7261C45.865 38.3309 41.9505 36.4196 41.2208 36.1559C40.4908 35.8925 39.96 35.761 39.429 36.5521C38.898 37.3419 37.3733 39.121 36.9085 39.6479C36.4443 40.176 35.9795 40.2418 35.1835 39.8466C34.3868 39.4502 31.8225 38.617 28.7803 35.9257C26.4133 33.8316 24.8153 31.2455 24.3508 30.4545C23.8863 29.6646 24.301 29.2365 24.7003 28.8428C25.058 28.4888 25.4968 27.9203 25.8953 27.4591C26.2923 26.9977 26.4248 26.6685 26.6903 26.1417C26.956 25.6143 26.823 25.1529 26.6243 24.7577C26.4248 24.3626 24.8775 20.4553 24.1695 18.8933Z" fill="white"/>
</g>
<defs>
<linearGradient id="paint0_linear_1584_2785" x1="3090.27" y1="6159.62" x2="3090.27" y2="1.60437" gradientUnits="userSpaceOnUse">
<stop stop-color="#1FAF38"/>
<stop offset="1" stop-color="#60D669"/>
</linearGradient>
<linearGradient id="paint1_linear_1584_2785" x1="3200" y1="6379.34" x2="3200" y2="0.5" gradientUnits="userSpaceOnUse">
<stop stop-color="#F9F9F9"/>
<stop offset="1" stop-color="white"/>
</linearGradient>
<clipPath id="clip0_1584_2785">
<rect width="64" height="64" fill="white" transform="translate(0 0.5)"/>
</clipPath>
</defs>
</svg>
