<svg width="113" height="97" viewBox="0 0 113 97" fill="none" xmlns="http://www.w3.org/2000/svg">
<path d="M0.976562 49.001C0.732422 48.7243 0.610352 48.4069 0.610352 48.0488C0.610352 47.8698 0.642904 47.6745 0.708008 47.4629C0.805664 47.2839 1.01725 47.1048 1.34277 46.9258C1.66829 46.7467 1.9694 46.6572 2.24609 46.6572H2.66113L2.7832 36.4521C2.81576 33.5387 2.84017 30.5928 2.85645 27.6143C2.889 24.6357 2.90527 22.4303 2.90527 20.998C2.90527 19.5169 2.91341 18.402 2.92969 17.6533C2.92969 15.7653 3.31217 14.4144 4.07715 13.6006C4.8584 12.7705 6.20931 12.209 8.12988 11.916C9.07389 11.7533 9.98535 11.6719 10.8643 11.6719C12.8174 11.6719 14.5752 12.0788 16.1377 12.8926C18.3838 14.0645 19.9626 15.9443 20.874 18.5322C21.1182 19.2972 21.2402 20.2819 21.2402 21.4863V21.7061C21.224 23.0081 21.0775 24.1637 20.8008 25.1729C20.0846 27.5817 18.8314 29.8522 17.041 31.9844C15.2507 34.1165 13.1185 35.8825 10.6445 37.2822C10.3353 37.4613 10.1074 37.6077 9.96094 37.7217C9.81445 37.8356 9.74121 37.917 9.74121 37.9658C9.74121 37.9821 9.74935 37.9984 9.76562 38.0146C9.86328 38.1123 10.1318 38.2181 10.5713 38.332C11.0107 38.4297 11.499 38.5192 12.0361 38.6006C12.5732 38.6657 13.0452 38.7064 13.4521 38.7227C13.859 38.7227 14.3799 38.682 15.0146 38.6006C15.6657 38.5192 16.2679 38.4215 16.8213 38.3076C17.391 38.1937 17.7734 38.0879 17.9688 37.9902C18.099 37.9251 18.1722 37.8682 18.1885 37.8193C18.2048 37.7705 18.2129 37.7298 18.2129 37.6973C18.2129 37.6322 18.1885 37.5589 18.1396 37.4775C18.0094 37.2171 17.9443 36.9242 17.9443 36.5986V36.4766C17.9769 36.1022 18.0827 35.8255 18.2617 35.6465C18.4896 35.4512 18.7744 35.3535 19.1162 35.3535H19.1895C19.5475 35.3698 19.8568 35.5 20.1172 35.7441C20.3776 35.9883 20.7357 36.4766 21.1914 37.209C21.6471 37.9414 22.0703 38.682 22.4609 39.4307C22.8678 40.1794 23.0713 40.6432 23.0713 40.8223C23.0713 41.4733 22.9004 41.8558 22.5586 41.9697C22.2331 42.0674 22.0052 42.1162 21.875 42.1162C21.4844 42.1162 21.11 41.9372 20.752 41.5791L20.2637 41.0176L19.458 41.3838C18.807 41.6442 17.8874 41.8883 16.6992 42.1162C15.5111 42.3278 14.4857 42.4336 13.623 42.4336C11.1165 42.4336 8.82975 41.8558 6.7627 40.7002C6.71387 40.7002 6.67318 40.9769 6.64062 41.5303C6.62435 42.0674 6.61621 42.7347 6.61621 43.5322V46.4619L7.10449 46.584C7.83691 46.7305 8.20312 47.1781 8.20312 47.9268C8.20312 48.3174 8.12174 48.6022 7.95898 48.7812C7.79622 48.9603 7.43001 49.0824 6.86035 49.1475C6.30697 49.2288 5.46061 49.2777 4.32129 49.2939C3.62142 49.3102 3.13314 49.3184 2.85645 49.3184C2.57975 49.3184 2.38444 49.3184 2.27051 49.3184C2.04264 49.3184 1.86361 49.3102 1.7334 49.2939C1.52181 49.2777 1.35905 49.2451 1.24512 49.1963C1.14746 49.1475 1.05794 49.0824 0.976562 49.001ZM8.34961 34.3037C11.1654 32.8389 13.3952 30.9102 15.0391 28.5176C16.6992 26.125 17.5293 23.7975 17.5293 21.5352V21.0713C17.2689 17.9951 15.5518 16.1396 12.3779 15.5049C11.9548 15.4398 11.4746 15.4072 10.9375 15.4072C10.6283 15.4072 10.3027 15.4154 9.96094 15.4316C9.01693 15.4805 8.20312 15.6025 7.51953 15.7979L6.61621 16.0664V25.5391C6.61621 31.8379 6.68132 34.9873 6.81152 34.9873C6.86035 34.9873 7.03125 34.9222 7.32422 34.792C7.61719 34.6618 7.95898 34.499 8.34961 34.3037ZM26.5869 15.8223C25.9033 15.3665 25.5615 14.8701 25.5615 14.333C25.5615 14.2191 25.5778 14.1051 25.6104 13.9912C25.7894 13.3239 26.0986 12.8926 26.5381 12.6973C26.9775 12.502 27.3112 12.4043 27.5391 12.4043C27.9622 12.4043 28.3936 12.5915 28.833 12.9658C29.2725 13.4378 29.4922 13.8936 29.4922 14.333C29.4922 14.4632 29.4678 14.5934 29.4189 14.7236C29.2399 15.277 28.9388 15.6432 28.5156 15.8223C28.1087 16.0013 27.7832 16.0908 27.5391 16.0908C27.2135 16.0908 26.8962 16.0013 26.5869 15.8223ZM24.3164 47.8047C23.8932 47.5443 23.6572 47.3001 23.6084 47.0723C23.5596 46.8281 23.5352 46.6654 23.5352 46.584C23.5352 46.3073 23.6328 46.0469 23.8281 45.8027C24.056 45.5098 24.4222 45.3633 24.9268 45.3633H25.5127L25.3906 38.6006C25.3581 36.6637 25.3337 34.8164 25.3174 33.0586C25.3011 31.2845 25.293 30.0638 25.293 29.3965C25.293 28.6641 25.2848 28.127 25.2686 27.7852C25.2523 27.4271 25.2197 27.1911 25.1709 27.0771C25.1383 26.9469 25.0732 26.8737 24.9756 26.8574C24.4548 26.6458 24.1455 26.4017 24.0479 26.125C23.9502 25.832 23.9014 25.6204 23.9014 25.4902C23.9014 25.2135 24.0072 24.9531 24.2188 24.709C24.3815 24.5137 24.585 24.3753 24.8291 24.2939C25.0732 24.1963 25.4232 24.1312 25.8789 24.0986C26.3509 24.0661 27.0264 24.0498 27.9053 24.0498C28.654 24.0498 29.1992 24.0579 29.541 24.0742C29.8828 24.0742 30.1188 24.1068 30.249 24.1719C30.3955 24.237 30.5176 24.3346 30.6152 24.4648C30.7129 24.5788 30.7943 24.7171 30.8594 24.8799C30.9245 25.0426 30.957 25.181 30.957 25.2949C30.957 25.6042 30.8024 25.9053 30.4932 26.1982C30.1839 26.4749 29.8584 26.6133 29.5166 26.6133H28.9795L29.1016 35.5C29.1341 38.0065 29.1667 40.1387 29.1992 41.8965C29.2318 43.638 29.2562 44.5902 29.2725 44.7529C29.3213 44.9971 29.5654 45.1761 30.0049 45.29C30.6396 45.4854 30.9814 45.7295 31.0303 46.0225C31.0791 46.3154 31.1035 46.4945 31.1035 46.5596C31.1035 46.9665 30.8675 47.3083 30.3955 47.585C30.1025 47.6989 29.5085 47.7965 28.6133 47.8779C27.7344 47.943 26.8555 47.9756 25.9766 47.9756C25.0977 47.9756 24.5443 47.9186 24.3164 47.8047ZM47.6074 48L46.9971 47.3652L45.9229 47.8535C45.0439 48.2441 44.2139 48.4395 43.4326 48.4395C42.2933 48.4395 41.2516 48.0163 40.3076 47.1699C37.6546 44.8587 36.3281 39.6992 36.3281 31.6914V26.7109L35.791 26.6865C35.612 26.6702 35.4329 26.6621 35.2539 26.6621C35.0749 26.6621 34.9202 26.6702 34.79 26.6865H34.6924C34.0739 26.6865 33.5449 26.5156 33.1055 26.1738C32.6497 25.7995 32.4219 25.3275 32.4219 24.7578C32.4707 23.4883 33.3984 22.8535 35.2051 22.8535H35.6201L36.8164 22.9023L37.0361 21.4131C37.1012 20.9736 37.1826 20.4284 37.2803 19.7773C37.3942 19.11 37.5081 18.4915 37.6221 17.9219C37.7197 17.3522 37.7848 16.8883 37.8174 16.5303C37.8662 16.1722 37.8906 15.9362 37.8906 15.8223V15.749C37.8581 15.7165 37.7604 15.6758 37.5977 15.627C37.4349 15.5781 37.2477 15.5374 37.0361 15.5049C36.4014 15.3747 35.9863 15.1712 35.791 14.8945C35.5957 14.6016 35.498 14.3411 35.498 14.1133C35.498 13.9017 35.555 13.682 35.6689 13.4541C35.8154 13.096 36.0352 12.917 36.3281 12.917C36.6211 12.9007 36.7839 12.8926 36.8164 12.8926C37.4023 12.8926 38.4115 13.0391 39.8438 13.332C40.9505 13.5436 41.748 13.7227 42.2363 13.8691C42.7409 13.9993 43.0583 14.1377 43.1885 14.2842C43.4814 14.5771 43.6279 14.8945 43.6279 15.2363C43.6279 15.3828 43.5954 15.5374 43.5303 15.7002C43.3187 16.2048 42.9118 16.457 42.3096 16.457C41.8864 16.457 41.6504 16.5628 41.6016 16.7744C41.569 16.9046 41.4958 17.2546 41.3818 17.8242C41.2842 18.3939 41.1784 19.0449 41.0645 19.7773C40.9505 20.4935 40.8447 21.1445 40.7471 21.7305C40.6657 22.3001 40.625 22.6257 40.625 22.707C40.625 22.7884 40.6901 22.8535 40.8203 22.9023C40.9505 22.9349 41.2109 22.9674 41.6016 23C42.0085 23.0163 42.5944 23.0244 43.3594 23.0244C44.0267 23.0407 44.5475 23.057 44.9219 23.0732C45.3125 23.0895 45.6055 23.1139 45.8008 23.1465C45.9961 23.179 46.1426 23.2279 46.2402 23.293C46.3542 23.3581 46.46 23.4476 46.5576 23.5615C46.8343 23.8545 46.9808 24.1149 46.9971 24.3428C47.0133 24.5706 47.0215 24.709 47.0215 24.7578C47.0215 25.1159 46.9238 25.4495 46.7285 25.7588C46.5007 26.1494 46.1182 26.418 45.5811 26.5645C45.0439 26.6947 44.2301 26.7598 43.1396 26.7598H42.7734C42.2363 26.7598 41.805 26.7598 41.4795 26.7598C41.154 26.7598 40.9098 26.776 40.7471 26.8086C40.5843 26.8249 40.4704 26.8574 40.4053 26.9062C40.3402 26.9551 40.2913 27.0202 40.2588 27.1016C40.1774 27.2806 40.1286 27.7038 40.1123 28.3711C40.1123 29.0384 40.1123 29.5592 40.1123 29.9336C40.1123 30.6823 40.1204 31.5042 40.1367 32.3994C40.1693 33.734 40.2181 34.9873 40.2832 36.1592C40.3483 37.3148 40.4215 38.1449 40.5029 38.6494C41.04 41.5954 41.7887 43.4753 42.749 44.2891C43.042 44.5495 43.2454 44.6878 43.3594 44.7041C43.4733 44.7204 43.5547 44.7285 43.6035 44.7285C43.7826 44.7285 44.0023 44.6715 44.2627 44.5576C44.4255 44.4762 44.5231 44.403 44.5557 44.3379C44.6045 44.2728 44.6289 44.2077 44.6289 44.1426C44.6289 44.0938 44.6208 44.0368 44.6045 43.9717C44.458 43.5322 44.3848 43.1497 44.3848 42.8242C44.3848 42.1081 44.7673 41.75 45.5322 41.75C45.8089 41.75 46.0449 41.807 46.2402 41.9209C46.4518 42.0348 46.7285 42.3115 47.0703 42.751C47.4121 43.1904 47.9004 43.874 48.5352 44.8018C49.3164 45.876 49.7559 46.5677 49.8535 46.877C49.9512 47.1862 50 47.4059 50 47.5361C50 47.8291 49.8779 48.0814 49.6338 48.293C49.3734 48.5371 49.0967 48.6592 48.8037 48.6592C48.4294 48.6592 48.0306 48.4395 47.6074 48ZM52.2949 48.0488C51.709 47.8372 51.416 47.4059 51.416 46.7549C51.416 46.348 51.5137 46.0632 51.709 45.9004C51.9206 45.7214 52.2868 45.5993 52.8076 45.5342L53.6377 45.4365L53.6865 40.2363C53.6865 38.6738 53.6784 36.3464 53.6621 33.2539C53.6458 30.1452 53.6214 26.9876 53.5889 23.7812L53.4424 12.5508L52.7832 12.2334C52.2298 11.973 51.9531 11.5824 51.9531 11.0615C51.9531 10.915 51.9775 10.7604 52.0264 10.5977C52.0915 10.207 52.3763 9.95475 52.8809 9.84082C53.4017 9.71061 54.1585 9.64551 55.1514 9.64551H55.9326C56.7139 9.66178 57.2917 9.6862 57.666 9.71875C58.0566 9.73503 58.3333 9.77572 58.4961 9.84082C58.6589 9.90592 58.7972 10.0117 58.9111 10.1582C59.2204 10.4674 59.375 10.7686 59.375 11.0615C59.375 11.3545 59.2529 11.6312 59.0088 11.8916C58.7809 12.1357 58.5286 12.2741 58.252 12.3066C58.1055 12.3066 57.9508 12.3148 57.7881 12.3311H57.6172C57.5521 12.3311 57.5033 12.3962 57.4707 12.5264C57.4382 12.6403 57.4056 12.8682 57.373 13.21C57.3568 13.5355 57.3405 14.0075 57.3242 14.626C57.3079 15.2445 57.2998 16.0583 57.2998 17.0674V21.584C57.2998 23.2441 57.3161 24.6683 57.3486 25.8564L57.4707 29.9824L58.5205 27.8584C59.7575 25.4333 60.8968 23.9359 61.9385 23.3662C62.9801 22.7965 63.8184 22.5117 64.4531 22.5117C65.1693 22.5117 65.8529 22.7314 66.5039 23.1709C67.7572 24.0335 68.7744 25.71 69.5557 28.2002C70.2718 30.5765 70.6299 34.0107 70.6299 38.5029C70.6299 39.8376 70.5973 41.2699 70.5322 42.7998L70.4346 44.8994L70.9717 44.9971C71.9482 45.2412 72.4365 45.6725 72.4365 46.291C72.4365 46.4701 72.3958 46.6654 72.3145 46.877C72.2168 47.1211 72.0459 47.3001 71.8018 47.4141C71.5739 47.528 71.3053 47.585 70.9961 47.585C70.6868 47.585 70.4834 47.585 70.3857 47.585C69.8812 47.585 69.2057 47.5524 68.3594 47.4873C67.5618 47.4385 66.862 47.3815 66.2598 47.3164C65.6738 47.235 65.3239 47.1699 65.21 47.1211C64.8031 46.8607 64.5996 46.5433 64.5996 46.1689C64.5996 46.055 64.6159 45.9329 64.6484 45.8027C64.7949 45.2493 65.1937 44.8913 65.8447 44.7285C66.0075 44.696 66.154 44.6471 66.2842 44.582C66.4144 44.5169 66.4958 44.4518 66.5283 44.3867C66.5446 44.2891 66.5771 43.9147 66.626 43.2637C66.6911 42.5964 66.7562 41.7988 66.8213 40.8711C66.8864 39.8294 66.9189 38.8122 66.9189 37.8193C66.9189 35.8499 66.7969 33.9863 66.5527 32.2285C66.1947 29.5755 65.6413 27.7689 64.8926 26.8086C64.7461 26.6133 64.6322 26.4831 64.5508 26.418C64.4694 26.3529 64.3962 26.3203 64.3311 26.3203H64.2822C64.2008 26.3366 64.0951 26.3936 63.9648 26.4912C63.6882 26.6865 63.3382 27.0771 62.915 27.6631C62.5081 28.2327 62.1338 28.8594 61.792 29.543C61.1735 30.8451 60.555 32.6273 59.9365 34.8896C59.3343 37.152 58.8949 39.3493 58.6182 41.4814L58.5693 41.75C58.4554 42.6452 58.3659 43.3451 58.3008 43.8496C58.252 44.3379 58.2275 44.6878 58.2275 44.8994C58.2275 45.1273 58.2601 45.2738 58.3252 45.3389C58.3903 45.3877 58.4798 45.4202 58.5938 45.4365C58.61 45.4528 58.6263 45.4609 58.6426 45.4609C58.9844 45.526 59.2448 45.6237 59.4238 45.7539C59.6029 45.8678 59.7575 46.055 59.8877 46.3154C59.9528 46.4619 59.9854 46.6165 59.9854 46.7793C59.9854 46.9258 59.9528 47.0723 59.8877 47.2188C59.7738 47.528 59.5459 47.7721 59.2041 47.9512C59.0576 48.0163 58.6589 48.0651 58.0078 48.0977C57.3568 48.1302 56.722 48.1465 56.1035 48.1465C55.5013 48.1628 55.013 48.1709 54.6387 48.1709H53.5645C52.8971 48.1546 52.474 48.1139 52.2949 48.0488ZM89.5508 48.9277C88.6068 48.9115 87.9069 48.8789 87.4512 48.8301C86.9954 48.7812 86.6862 48.6755 86.5234 48.5127C86.377 48.3499 86.2712 48.1058 86.2061 47.7803C86.1898 47.7152 86.1816 47.6582 86.1816 47.6094C86.1816 47.3001 86.3281 47.0072 86.6211 46.7305C86.9629 46.4049 87.3535 46.2422 87.793 46.2422H88.4277V36.7695L87.3047 39.0889C84.4564 44.9157 81.6162 47.8535 78.7842 47.9023C76.9613 47.8698 75.6185 46.8851 74.7559 44.9482C74.4141 44.2158 74.1943 43.4671 74.0967 42.7021C73.999 41.9372 73.9502 41.1396 73.9502 40.3096C73.9502 39.9515 73.9583 39.569 73.9746 39.1621C74.056 36.5417 74.7152 33.5957 75.9521 30.3242C76.18 29.722 76.3672 29.193 76.5137 28.7373C76.6764 28.2816 76.7578 28.0212 76.7578 27.9561C76.7578 27.891 76.7008 27.8177 76.5869 27.7363C76.4893 27.6387 76.359 27.5492 76.1963 27.4678C76.0335 27.3864 75.8626 27.2806 75.6836 27.1504C75.5208 27.0202 75.3906 26.8818 75.293 26.7354C75.1465 26.5075 75.0732 26.2796 75.0732 26.0518C75.0732 25.9704 75.0814 25.8809 75.0977 25.7832C75.1953 25.4577 75.4232 25.2054 75.7812 25.0264C75.9603 24.9287 76.1312 24.8799 76.2939 24.8799H76.3672C76.5625 24.8799 76.8636 24.945 77.2705 25.0752C78.8981 25.5309 80.0944 25.8971 80.8594 26.1738C81.6243 26.4342 82.1045 26.6784 82.2998 26.9062C82.4951 27.1178 82.5928 27.4027 82.5928 27.7607C82.5928 28.6071 82.0719 29.0303 81.0303 29.0303H80.8594C80.8268 29.014 80.7943 29.0059 80.7617 29.0059C80.6803 29.0059 80.6152 29.0303 80.5664 29.0791C80.485 29.1279 80.3874 29.2581 80.2734 29.4697C80.1758 29.665 80.0456 29.9824 79.8828 30.4219C79.7201 30.8451 79.5003 31.431 79.2236 32.1797C78.3773 34.5885 77.8971 36.4847 77.7832 37.8682C77.6855 39.2354 77.6367 40.1387 77.6367 40.5781C77.6367 42.0592 77.8727 43.1253 78.3447 43.7764C78.4912 43.9554 78.6702 44.0449 78.8818 44.0449C79.5492 44.0449 80.5501 43.0928 81.8848 41.1885C82.4219 40.4235 82.9753 39.4469 83.5449 38.2588C84.1309 37.0706 84.9691 35.2152 86.0596 32.6924C86.5804 31.4391 87.0443 30.3568 87.4512 29.4453C87.8581 28.5339 88.1022 28.013 88.1836 27.8828C88.3952 27.5898 88.6556 27.3701 88.9648 27.2236C89.2741 27.0771 89.5508 27.0039 89.7949 27.0039C89.8763 27.0039 89.9495 27.012 90.0146 27.0283C90.1774 27.0609 90.3727 27.1585 90.6006 27.3213C90.8447 27.4678 91.0807 27.6305 91.3086 27.8096L92.0654 28.4932L92.1631 37.3311C92.1956 39.805 92.2201 41.8802 92.2363 43.5566C92.2689 45.2168 92.2852 46.0794 92.2852 46.1445C92.3014 46.1608 92.3747 46.1852 92.5049 46.2178C92.6351 46.234 92.7897 46.2585 92.9688 46.291C93.6361 46.4212 94.043 46.641 94.1895 46.9502C94.3522 47.2594 94.4336 47.4954 94.4336 47.6582C94.4336 47.9349 94.3034 48.2116 94.043 48.4883C93.8965 48.6348 93.6849 48.7406 93.4082 48.8057C93.1478 48.887 92.8141 48.9277 92.4072 48.9277C92.0166 48.944 91.6911 48.9521 91.4307 48.9521C90.9261 48.9521 90.2995 48.944 89.5508 48.9277ZM97.2168 43.6299C97.5098 42.1325 98.3724 40.6514 99.8047 39.1865L100.073 38.918C100.545 38.5111 100.781 38.2018 100.781 37.9902C100.781 37.974 100.773 37.9495 100.757 37.917C100.675 37.7054 100.195 37.3799 99.3164 36.9404C99.1862 36.859 99.0397 36.7777 98.877 36.6963C95.8333 35.0361 94.3115 32.9609 94.3115 30.4707C94.3115 30.0475 94.3604 29.6081 94.458 29.1523C94.7998 27.5736 95.6136 26.0843 96.8994 24.6846C98.0387 23.4476 99.2025 22.6094 100.391 22.1699C101.579 21.7142 102.588 21.4863 103.418 21.4863C104.02 21.4863 104.614 21.5677 105.2 21.7305C106.6 22.1211 107.739 23.1628 108.618 24.8555C109.22 26.0924 109.587 27.5817 109.717 29.3232L109.839 30.7881H110.449C111.263 30.7881 111.776 31.0241 111.987 31.4961C112.085 31.7077 112.134 31.9111 112.134 32.1064C112.134 32.4971 111.93 32.8389 111.523 33.1318C111.328 33.2458 110.832 33.3923 110.034 33.5713C109.253 33.7503 108.431 33.9212 107.568 34.084C106.706 34.2305 106.12 34.3037 105.811 34.3037C105.485 34.3037 105.176 34.1735 104.883 33.9131C104.606 33.6527 104.468 33.376 104.468 33.083C104.468 32.8389 104.59 32.5785 104.834 32.3018C105.094 32.0251 105.363 31.846 105.64 31.7646L106.128 31.6426C106.112 31.4147 106.095 31.195 106.079 30.9834C106.047 30.0557 105.949 29.1442 105.786 28.249C105.412 26.2145 104.606 25.1973 103.369 25.1973C102.62 25.1973 101.725 25.5553 100.684 26.2715C99.9674 26.7923 99.3571 27.4271 98.8525 28.1758C98.348 28.9082 98.0957 29.6488 98.0957 30.3975C98.0957 30.9508 98.2178 31.4147 98.4619 31.7891C98.7223 32.1471 99.1455 32.5052 99.7314 32.8633C100.008 33.026 100.374 33.2539 100.83 33.5469C101.302 33.8236 101.75 34.084 102.173 34.3281L102.466 34.5234C103.54 35.1582 104.313 35.6383 104.785 35.9639C105.273 36.2731 105.623 36.5417 105.835 36.7695C106.047 36.9974 106.274 37.3066 106.519 37.6973C107.056 38.4785 107.438 39.1621 107.666 39.748C107.91 40.3177 108.057 40.9281 108.105 41.5791C108.122 41.7907 108.13 42.0023 108.13 42.2139C108.13 43.4997 107.788 44.7367 107.104 45.9248C106.323 47.292 105.249 48.3255 103.882 49.0254C103.084 49.3672 102.327 49.5381 101.611 49.5381C101.139 49.5381 100.684 49.4648 100.244 49.3184C99.1536 48.9277 98.3561 48.293 97.8516 47.4141C97.3633 46.5352 97.1191 45.6481 97.1191 44.7529C97.1191 44.3949 97.1517 44.0205 97.2168 43.6299ZM102.661 45.4609C103.345 45.0052 103.8 44.4437 104.028 43.7764C104.272 43.109 104.395 42.5638 104.395 42.1406C104.395 41.7988 104.338 41.4652 104.224 41.1396L103.955 40.4805L103.442 40.8467C103.068 41.1234 102.653 41.514 102.197 42.0186C101.742 42.5231 101.416 42.9544 101.221 43.3125C101.009 43.7194 100.903 44.0531 100.903 44.3135C100.903 44.5576 100.903 44.6878 100.903 44.7041C100.903 45.1598 101.034 45.4854 101.294 45.6807C101.392 45.762 101.522 45.8027 101.685 45.8027C101.945 45.8027 102.271 45.6888 102.661 45.4609Z" fill="#4A3518"/>
<path d="M18.3008 85.293C18.1055 85.0716 18.0078 84.8438 18.0078 84.6094C18.0078 84.4922 18.0273 84.375 18.0664 84.2578C18.1836 83.8802 18.457 83.6328 18.8867 83.5156C18.9779 83.4896 19.1146 83.4701 19.2969 83.457C19.4792 83.431 19.6615 83.4115 19.8438 83.3984L20.4688 83.3594V61.1523L18.8867 61.0938L17.2852 61.0547V61.9727C17.2852 62.8841 16.9792 63.3398 16.3672 63.3398C15.8724 63.3398 15.5469 63.151 15.3906 62.7734C15.2474 62.3828 15.1758 61.6732 15.1758 60.6445V60.3711C15.1888 59.1992 15.2344 58.3464 15.3125 57.8125C15.3906 57.2786 15.5273 56.9401 15.7227 56.7969C15.957 56.6276 16.1849 56.543 16.4062 56.543C16.5234 56.543 16.6406 56.569 16.7578 56.6211C17.0833 56.7643 17.3047 57.0768 17.4219 57.5586L17.5195 58.0273H20.625C21.7188 58.0143 22.7148 58.0078 23.6133 58.0078C24.6029 57.9948 25.4883 57.9883 26.2695 57.9883C27.0508 57.9883 27.7344 57.9883 28.3203 57.9883C28.9193 57.9753 29.4336 57.9688 29.8633 57.9688C30.306 57.9688 30.6771 57.9688 30.9766 57.9688C31.2891 57.9557 31.5365 57.9427 31.7188 57.9297C31.9141 57.9167 32.0638 57.9102 32.168 57.9102C32.2721 57.8971 32.3438 57.8841 32.3828 57.8711C32.4349 57.8451 32.4609 57.8255 32.4609 57.8125C32.4609 57.7865 32.4609 57.7604 32.4609 57.7344C32.4479 57.7214 32.4414 57.7018 32.4414 57.6758C32.4414 57.2461 32.5716 56.9336 32.832 56.7383C33.0924 56.5299 33.3464 56.4258 33.5938 56.4258C33.724 56.4258 33.8542 56.4453 33.9844 56.4844C34.1797 56.5495 34.3164 56.6732 34.3945 56.8555C34.4857 57.0247 34.5247 57.3372 34.5117 57.793C34.5117 58.2357 34.4792 58.8867 34.4141 59.7461C34.362 60.4492 34.3164 60.9831 34.2773 61.3477C34.2383 61.6992 34.1862 61.9531 34.1211 62.1094C34.069 62.2526 33.9974 62.3633 33.9062 62.4414C33.6719 62.6628 33.4375 62.7734 33.2031 62.7734C33.0859 62.7734 32.9753 62.7474 32.8711 62.6953C32.5195 62.5391 32.2917 62.1875 32.1875 61.6406C32.1484 61.3672 32.0898 61.1914 32.0117 61.1133C31.9466 61.0221 31.8294 60.9701 31.6602 60.957C31.582 60.944 31.4258 60.9375 31.1914 60.9375C30.957 60.9375 30.638 60.944 30.2344 60.957C29.4271 60.957 28.4766 60.9766 27.3828 61.0156L23.5156 61.0938V67.8125C23.5156 69.6484 23.5221 71.2174 23.5352 72.5195C23.5612 73.8216 23.5938 74.5052 23.6328 74.5703H23.75C23.8932 74.5703 24.1536 74.5638 24.5312 74.5508C25.0781 74.5378 25.7552 74.5117 26.5625 74.4727L29.3945 74.3164L29.4727 73.7695C29.5768 73.2357 29.7526 72.9167 30 72.8125C30.2474 72.6953 30.4362 72.6367 30.5664 72.6367C30.8138 72.6367 31.0612 72.7474 31.3086 72.9688C31.3737 73.0208 31.4258 73.0924 31.4648 73.1836C31.5039 73.2747 31.5299 73.4115 31.543 73.5938C31.569 73.776 31.582 74.043 31.582 74.3945C31.582 74.7461 31.582 75.2148 31.582 75.8008C31.582 76.4258 31.582 76.9206 31.582 77.2852C31.582 77.6367 31.569 77.9036 31.543 78.0859C31.5169 78.2552 31.4779 78.3854 31.4258 78.4766C31.3867 78.5547 31.3281 78.6328 31.25 78.7109C31.1458 78.8021 31.0286 78.8867 30.8984 78.9648C30.7812 79.0299 30.6901 79.0625 30.625 79.0625C30.3776 79.0625 30.1432 78.9453 29.9219 78.7109C29.7135 78.4766 29.5768 78.2031 29.5117 77.8906L29.4141 77.3242L27.5586 77.4023C27.0378 77.4284 26.4974 77.4609 25.9375 77.5C25.3776 77.526 24.9349 77.5521 24.6094 77.5781L23.5156 77.6758L23.5938 83.2227L24.1016 83.3008C24.4922 83.3659 24.7461 83.4635 24.8633 83.5938C24.9935 83.724 25.0586 83.9062 25.0586 84.1406C25.0586 84.2057 25.0521 84.2708 25.0391 84.3359C25.0391 84.6484 24.9544 84.8828 24.7852 85.0391C24.6289 85.1953 24.2904 85.306 23.7695 85.3711C23.2487 85.4362 22.4479 85.4818 21.3672 85.5078C20.7031 85.5339 20.2279 85.5469 19.9414 85.5469C19.6549 85.5469 19.4401 85.5469 19.2969 85.5469H18.9453C18.75 85.5339 18.6068 85.5078 18.5156 85.4688C18.4375 85.4297 18.3659 85.3711 18.3008 85.293ZM36.543 84.8438C35.0195 84.2448 33.9714 82.8906 33.3984 80.7812C33.2552 80.0911 33.1836 79.375 33.1836 78.6328C33.1836 78.0469 33.2292 77.4479 33.3203 76.8359C33.5417 75.4427 33.9062 74.5573 34.4141 74.1797C34.4792 74.1536 34.5182 74.1211 34.5312 74.082C34.5443 74.043 34.5508 74.0169 34.5508 74.0039C34.5508 73.9388 34.5378 73.8607 34.5117 73.7695C34.4727 73.6263 34.401 73.418 34.2969 73.1445C34.0495 72.4544 33.9258 71.7057 33.9258 70.8984C33.9258 70.1042 34.0495 69.375 34.2969 68.7109C35.2995 66.3672 36.8424 65.1953 38.9258 65.1953C39.2122 65.1953 39.5117 65.2148 39.8242 65.2539C41.9987 65.6055 43.6263 67.1094 44.707 69.7656C45.0326 70.6771 45.1953 71.8164 45.1953 73.1836V73.4961C45.1693 75.0065 45.0195 76.276 44.7461 77.3047C44.3424 78.6979 43.8151 79.974 43.1641 81.1328C42.513 82.2917 41.8229 83.1706 41.0938 83.7695C40.4036 84.3034 39.7526 84.6419 39.1406 84.7852C38.5286 84.9284 38.0404 85 37.6758 85C37.2721 85 36.8945 84.9479 36.543 84.8438ZM41.7188 74.0625L42.2656 73.9648L42.207 72.6172C42.168 71.875 42.0508 71.224 41.8555 70.6641C41.5299 69.8177 41.0807 69.1927 40.5078 68.7891C39.9479 68.3854 39.4531 68.1836 39.0234 68.1836C38.737 68.1836 38.444 68.2552 38.1445 68.3984C37.5326 68.776 37.168 69.2122 37.0508 69.707C36.9336 70.2018 36.875 70.5859 36.875 70.8594C36.875 71.3021 36.9596 71.7383 37.1289 72.168C37.4023 72.8711 37.8841 73.4115 38.5742 73.7891C39.0951 74.0495 39.7266 74.1797 40.4688 74.1797C40.8594 74.1797 41.276 74.1406 41.7188 74.0625ZM40 80.6445C40.4297 80.0716 40.8138 79.388 41.1523 78.5938C41.2044 78.4635 41.2565 78.3464 41.3086 78.2422C41.4909 77.8516 41.582 77.5716 41.582 77.4023C41.582 77.3503 41.569 77.3112 41.543 77.2852C41.4779 77.181 41.1914 77.1289 40.6836 77.1289H40.5078C40.3776 77.1159 40.2344 77.1094 40.0781 77.1094C39.6094 77.0964 39.2383 77.0768 38.9648 77.0508C38.6914 77.0247 38.4505 76.9792 38.2422 76.9141C38.0469 76.8359 37.806 76.7318 37.5195 76.6016L36.5625 76.1523C36.3672 76.6471 36.25 77.1224 36.2109 77.5781C36.1849 78.0208 36.1719 78.3529 36.1719 78.5742C36.1719 79.0169 36.2044 79.4531 36.2695 79.8828C36.5299 81.2109 36.8555 81.901 37.2461 81.9531C37.6367 82.0052 37.8646 82.0312 37.9297 82.0312C38.5938 82.0312 39.2839 81.569 40 80.6445ZM50.4102 84.8438C48.8867 84.2448 47.8385 82.8906 47.2656 80.7812C47.1224 80.0911 47.0508 79.375 47.0508 78.6328C47.0508 78.0469 47.0964 77.4479 47.1875 76.8359C47.4089 75.4427 47.7734 74.5573 48.2812 74.1797C48.3464 74.1536 48.3854 74.1211 48.3984 74.082C48.4115 74.043 48.418 74.0169 48.418 74.0039C48.418 73.9388 48.4049 73.8607 48.3789 73.7695C48.3398 73.6263 48.2682 73.418 48.1641 73.1445C47.9167 72.4544 47.793 71.7057 47.793 70.8984C47.793 70.1042 47.9167 69.375 48.1641 68.7109C49.1667 66.3672 50.7096 65.1953 52.793 65.1953C53.0794 65.1953 53.3789 65.2148 53.6914 65.2539C55.8659 65.6055 57.4935 67.1094 58.5742 69.7656C58.8997 70.6771 59.0625 71.8164 59.0625 73.1836V73.4961C59.0365 75.0065 58.8867 76.276 58.6133 77.3047C58.2096 78.6979 57.6823 79.974 57.0312 81.1328C56.3802 82.2917 55.6901 83.1706 54.9609 83.7695C54.2708 84.3034 53.6198 84.6419 53.0078 84.7852C52.3958 84.9284 51.9076 85 51.543 85C51.1393 85 50.7617 84.9479 50.4102 84.8438ZM55.5859 74.0625L56.1328 73.9648L56.0742 72.6172C56.0352 71.875 55.918 71.224 55.7227 70.6641C55.3971 69.8177 54.9479 69.1927 54.375 68.7891C53.8151 68.3854 53.3203 68.1836 52.8906 68.1836C52.6042 68.1836 52.3112 68.2552 52.0117 68.3984C51.3997 68.776 51.0352 69.2122 50.918 69.707C50.8008 70.2018 50.7422 70.5859 50.7422 70.8594C50.7422 71.3021 50.8268 71.7383 50.9961 72.168C51.2695 72.8711 51.7513 73.4115 52.4414 73.7891C52.9622 74.0495 53.5938 74.1797 54.3359 74.1797C54.7266 74.1797 55.1432 74.1406 55.5859 74.0625ZM53.8672 80.6445C54.2969 80.0716 54.681 79.388 55.0195 78.5938C55.0716 78.4635 55.1237 78.3464 55.1758 78.2422C55.3581 77.8516 55.4492 77.5716 55.4492 77.4023C55.4492 77.3503 55.4362 77.3112 55.4102 77.2852C55.3451 77.181 55.0586 77.1289 54.5508 77.1289H54.375C54.2448 77.1159 54.1016 77.1094 53.9453 77.1094C53.4766 77.0964 53.1055 77.0768 52.832 77.0508C52.5586 77.0247 52.3177 76.9792 52.1094 76.9141C51.9141 76.8359 51.6732 76.7318 51.3867 76.6016L50.4297 76.1523C50.2344 76.6471 50.1172 77.1224 50.0781 77.5781C50.0521 78.0208 50.0391 78.3529 50.0391 78.5742C50.0391 79.0169 50.0716 79.4531 50.1367 79.8828C50.3971 81.2109 50.7227 81.901 51.1133 81.9531C51.5039 82.0052 51.7318 82.0312 51.7969 82.0312C52.4609 82.0312 53.151 81.569 53.8672 80.6445ZM74.9805 87.168C74.3685 87.1419 73.8411 87.1094 73.3984 87.0703C72.9557 87.0443 72.6888 87.0117 72.5977 86.9727C72.4544 86.8945 72.3503 86.7578 72.2852 86.5625C72.2201 86.3672 72.1875 86.1784 72.1875 85.9961V85.8203C72.2266 85.612 72.3438 85.4297 72.5391 85.2734C72.7474 85.1172 72.9688 85.0391 73.2031 85.0391C73.3203 85.0391 73.4245 85.026 73.5156 85C73.6068 84.974 73.6654 84.9414 73.6914 84.9023C73.7174 84.8372 73.7305 84.5964 73.7305 84.1797C73.7305 83.763 73.7174 83.2943 73.6914 82.7734C73.6654 82.2526 73.6328 81.7969 73.5938 81.4062C73.5677 81.0026 73.5352 80.8008 73.4961 80.8008C73.4701 80.8008 73.4049 80.8659 73.3008 80.9961C73.2096 81.1263 73.1055 81.2826 72.9883 81.4648C72.4023 82.3633 71.6667 83.1771 70.7812 83.9062C69.8958 84.6354 69.0039 85.1562 68.1055 85.4688C67.5456 85.651 66.9987 85.7422 66.4648 85.7422C65.7747 85.7422 65.1107 85.5924 64.4727 85.293C63.3529 84.7461 62.4609 83.7956 61.7969 82.4414C61.1849 81.1003 60.8789 79.6549 60.8789 78.1055V77.9102C60.8919 76.2826 61.1458 74.6745 61.6406 73.0859C62.1484 71.4974 62.7995 70.0781 63.5938 68.8281C64.5833 67.3307 65.599 66.25 66.6406 65.5859C67.6823 64.9219 68.5286 64.5508 69.1797 64.4727C69.8307 64.3945 70.3255 64.3555 70.6641 64.3555C71.1068 64.3555 71.4974 64.401 71.8359 64.4922C72.4219 64.6484 72.7604 64.7917 72.8516 64.9219C72.8646 64.8958 72.8711 64.7917 72.8711 64.6094C72.8711 64.4271 72.8646 64.1732 72.8516 63.8477C72.8255 63.1706 72.793 62.3763 72.7539 61.4648C72.7279 60.5404 72.6953 59.681 72.6562 58.8867C72.6172 58.0794 72.5846 57.5195 72.5586 57.207L72.4805 56.4648H71.7969C71.1979 56.4648 70.8073 56.3411 70.625 56.0938C70.4427 55.8464 70.3516 55.6315 70.3516 55.4492C70.3516 55.2539 70.4297 55.0391 70.5859 54.8047C70.7292 54.5833 71.0872 54.4271 71.6602 54.3359C72.2461 54.2448 73.1576 54.1992 74.3945 54.1992C74.9023 54.1992 75.306 54.1992 75.6055 54.1992C75.9049 54.1992 76.1328 54.2122 76.2891 54.2383C76.4453 54.2643 76.5625 54.3034 76.6406 54.3555C76.7188 54.3945 76.7904 54.4531 76.8555 54.5312C77.0638 54.7786 77.168 55.026 77.168 55.2734C77.168 55.3776 77.1484 55.4818 77.1094 55.5859C76.9661 55.9375 76.6536 56.1654 76.1719 56.2695L75.6055 56.3477V57.6367C75.6055 58.0013 75.6185 58.5677 75.6445 59.3359C75.6706 60.0911 75.7031 60.8529 75.7422 61.6211C75.7812 62.4544 75.8529 64.0755 75.957 66.4844C76.0742 68.8802 76.1914 71.5039 76.3086 74.3555C76.4388 77.194 76.5495 79.5898 76.6406 81.543C76.7318 83.4961 76.7904 84.5573 76.8164 84.7266C76.8424 84.8438 76.888 84.9284 76.9531 84.9805C77.0312 85.0195 77.1484 85.0391 77.3047 85.0391C77.7604 85.0391 78.0729 85.1497 78.2422 85.3711C78.4245 85.6055 78.5156 85.8268 78.5156 86.0352C78.5156 86.1654 78.4896 86.3086 78.4375 86.4648C78.3464 86.6992 78.2031 86.8685 78.0078 86.9727C77.8255 87.0898 77.5781 87.1549 77.2656 87.168C76.9661 87.181 76.7122 87.1875 76.5039 87.1875C76.1003 87.1875 75.5924 87.181 74.9805 87.168ZM69.6094 80.918C70.3125 80.1628 70.8919 79.3164 71.3477 78.3789C71.8164 77.4414 72.181 76.4714 72.4414 75.4688C72.5977 74.9089 72.6953 74.4401 72.7344 74.0625C72.7865 73.6719 72.8125 73.1901 72.8125 72.6172V72.168C72.8125 71.3737 72.793 70.8008 72.7539 70.4492C72.7148 70.0846 72.6367 69.7461 72.5195 69.4336C72.0638 68.0534 71.3411 67.3633 70.3516 67.3633H70.1953C69.362 67.3633 68.4961 67.793 67.5977 68.6523C66.1523 69.9935 65.0651 71.9206 64.3359 74.4336C64.1276 75.1367 64.0039 75.8398 63.9648 76.543C63.9258 77.2331 63.9062 77.6953 63.9062 77.9297C63.9062 78.8411 64.0104 79.7135 64.2188 80.5469C64.5573 81.6667 64.9414 82.3177 65.3711 82.5C65.8008 82.6693 66.1523 82.7539 66.4258 82.7539C66.8034 82.7539 67.2005 82.6497 67.6172 82.4414C68.3203 82.0898 68.9844 81.582 69.6094 80.918ZM80.4688 81.5039C80.7031 80.306 81.3932 79.1211 82.5391 77.9492L82.7539 77.7344C83.1315 77.4089 83.3203 77.1615 83.3203 76.9922C83.3203 76.9792 83.3138 76.9596 83.3008 76.9336C83.2357 76.7643 82.8516 76.5039 82.1484 76.1523C82.0443 76.0872 81.9271 76.0221 81.7969 75.957C79.362 74.6289 78.1445 72.9688 78.1445 70.9766C78.1445 70.638 78.1836 70.2865 78.2617 69.9219C78.5352 68.6589 79.1862 67.4674 80.2148 66.3477C81.1263 65.3581 82.0573 64.6875 83.0078 64.3359C83.9583 63.9714 84.7656 63.7891 85.4297 63.7891C85.9115 63.7891 86.3867 63.8542 86.8555 63.9844C87.9753 64.2969 88.8867 65.1302 89.5898 66.4844C90.0716 67.474 90.3646 68.6654 90.4688 70.0586L90.5664 71.2305H91.0547C91.7057 71.2305 92.1159 71.4193 92.2852 71.7969C92.3633 71.9661 92.4023 72.1289 92.4023 72.2852C92.4023 72.5977 92.2396 72.8711 91.9141 73.1055C91.7578 73.1966 91.3607 73.3138 90.7227 73.457C90.0977 73.6003 89.4401 73.737 88.75 73.8672C88.0599 73.9844 87.5911 74.043 87.3438 74.043C87.0833 74.043 86.8359 73.9388 86.6016 73.7305C86.3802 73.5221 86.2695 73.3008 86.2695 73.0664C86.2695 72.8711 86.3672 72.6628 86.5625 72.4414C86.7708 72.2201 86.9857 72.0768 87.207 72.0117L87.5977 71.9141C87.5846 71.7318 87.5716 71.556 87.5586 71.3867C87.5326 70.6445 87.4544 69.9154 87.3242 69.1992C87.0247 67.5716 86.3802 66.7578 85.3906 66.7578C84.7917 66.7578 84.0755 67.0443 83.2422 67.6172C82.6693 68.0339 82.181 68.5417 81.7773 69.1406C81.3737 69.7266 81.1719 70.319 81.1719 70.918C81.1719 71.3607 81.2695 71.7318 81.4648 72.0312C81.6732 72.3177 82.0117 72.6042 82.4805 72.8906C82.7018 73.0208 82.9948 73.2031 83.3594 73.4375C83.737 73.6589 84.0951 73.8672 84.4336 74.0625L84.668 74.2188C85.5273 74.7266 86.1458 75.1107 86.5234 75.3711C86.9141 75.6185 87.194 75.8333 87.3633 76.0156C87.5326 76.1979 87.7148 76.4453 87.9102 76.7578C88.3398 77.3828 88.6458 77.9297 88.8281 78.3984C89.0234 78.8542 89.1406 79.3424 89.1797 79.8633C89.1927 80.0326 89.1992 80.2018 89.1992 80.3711C89.1992 81.3997 88.9258 82.3893 88.3789 83.3398C87.7539 84.4336 86.8945 85.2604 85.8008 85.8203C85.1628 86.0938 84.5573 86.2305 83.9844 86.2305C83.6068 86.2305 83.2422 86.1719 82.8906 86.0547C82.0182 85.7422 81.3802 85.2344 80.9766 84.5312C80.5859 83.8281 80.3906 83.1185 80.3906 82.4023C80.3906 82.1159 80.4167 81.8164 80.4688 81.5039ZM84.8242 82.9688C85.3711 82.6042 85.7357 82.1549 85.918 81.6211C86.1133 81.0872 86.2109 80.651 86.2109 80.3125C86.2109 80.0391 86.1654 79.7721 86.0742 79.5117L85.8594 78.9844L85.4492 79.2773C85.1497 79.4987 84.8177 79.8112 84.4531 80.2148C84.0885 80.6185 83.8281 80.9635 83.6719 81.25C83.5026 81.5755 83.418 81.8424 83.418 82.0508C83.418 82.2461 83.418 82.3503 83.418 82.3633C83.418 82.7279 83.5221 82.9883 83.7305 83.1445C83.8086 83.2096 83.9128 83.2422 84.043 83.2422C84.2513 83.2422 84.5117 83.151 84.8242 82.9688Z" fill="#DEB617"/>
</svg>
